<?xml version="1.0" encoding="UTF-8"?>
<!-- Created with Inkscape (http://www.inkscape.org/) -->
<svg width="100mm" height="80mm" version="1.1" viewBox="0 0 100 80" xmlns="http://www.w3.org/2000/svg">
 <g transform="translate(-56.733 -94.376)">
  <g transform="translate(6.8859 10.016)" fill="none" stroke="#000" stroke-linecap="round" stroke-linejoin="round" stroke-miterlimit="10" stroke-width=".25">
   <g transform="translate(.40801)">
    <g transform="translate(-17.9 2.5022)">
     <path d="m101.02 95.868c0 0.27615-0.22386 0.50002-0.50001 0.50002-0.27616 0-0.50009-0.22387-0.50009-0.49988l-4.0001-7e-5c0 0.27608-0.22386 0.49995-0.50002 0.49995s-0.50002-0.22387-0.50002-0.50002c0-0.27615 0.22387-0.49982 0.50008-0.49982v-3.0768l-0.19643-0.16129c-2.9071 0.57042-5.5583 2.0485-7.5722 4.2215l0.03428 0.2519 2.617 1.6175c0.14511-0.23495 0.45324-0.30767 0.68814-0.16248 0.2349 0.14519 0.30763 0.45332 0.16243 0.68822-0.14519 0.23491-0.45332 0.30763-0.68836 0.16264l-2.1031 3.4024c0.23496 0.14524 0.30768 0.45337 0.16249 0.68827-0.1452 0.23494-0.45332 0.30763-0.68822 0.16244-0.23491-0.14519-0.30763-0.45332-0.16224-0.6882l-2.617-1.6176-0.24088 0.0821c-1.1953 3.1776-1.1953 6.6815 8.5e-5 9.8591l0.24079 0.082 2.6169-1.6175c-0.14529-0.23487-0.07257-0.543 0.16234-0.68819 0.2349-0.14519 0.54303-0.0725 0.68822 0.16243 0.14519 0.23491 0.07247 0.54303-0.16255 0.68828l2.1031 3.4028c0.23504-0.14537 0.54317-0.0726 0.68836 0.16226 0.1452 0.23491 0.07247 0.54303-0.16243 0.68823-0.2349 0.14519-0.54303 0.0725-0.68815-0.16251l-2.617 1.6175-0.03429 0.25189c2.0139 2.173 4.6651 3.6511 7.5722 4.2216l0.19637-0.1614-3e-5 -3.0764c-0.27618-9e-5 -0.50005-0.22395-0.50005-0.5001 0-0.27616 0.22387-0.50002 0.50002-0.50002s0.50002 0.22386 0.50002 0.49982l4.0001 1e-4c4e-5 -0.27606 0.2239-0.49992 0.50006-0.49992 0.27615 0 0.50001 0.22386 0.50001 0.50002 0 0.27615-0.22386 0.50018-0.50014 0.50018v3.0764l0.19642 0.16129c2.9071-0.57036 5.5584-2.0484 7.5722-4.2214l-0.0343-0.25194-2.6167-1.6175c-0.14529 0.23501-0.45342 0.3077-0.68832 0.16251-0.23494-0.1452-0.30763-0.45332-0.16244-0.68823 0.14519-0.23486 0.45332-0.30763 0.68829-0.16226l2.1031-3.4028c-0.23495-0.14522-0.30764-0.45334-0.16245-0.68825 0.14519-0.23493 0.45332-0.30762 0.68822-0.16243 0.23489 0.14519 0.30763 0.45332 0.16259 0.68815l2.6166 1.6176 0.24087-0.0821c1.1953-3.1776 1.1953-6.6814 0-9.8591l-0.24087-0.0821-2.6167 1.6175c0.14512 0.23489 0.0724 0.54302-0.16251 0.68821-0.2349 0.14519-0.54303 0.0725-0.68822-0.16244-0.14519-0.2349-0.0725-0.54303 0.16247-0.68832l-2.1032-3.4024c-0.23494 0.14509-0.54307 0.07237-0.68826-0.16254-0.14519-0.2349-0.0725-0.54303 0.16244-0.68822 0.2349-0.14519 0.54303-0.07247 0.68841 0.16252l2.7855-1.7221c-2.0282-2.2521-4.7326-3.7852-7.7068-4.3689l-0.19641 0.16137 7e-5 3.0767c0.27621-1.02e-4 0.50007 0.22376 0.50007 0.49992z"/>
     <path d="m97.521 103.87c0-0.27616 0.22405-0.50002 0.5002-0.50002s0.50002 0.22386 0.50008 0.50002l5.7e-5 4.0001c0 0.27621-0.22398 0.50008-0.50013 0.50008s-0.50002-0.22387-0.50011-0.50005z"/>
    </g>
    <g transform="translate(-63.93 3.2878)">
     <path d="m182.19 104.45v-1.5003c1e-5 -0.27601 0.22388-0.49988 0.50003-0.49988s0.50001 0.22387 0.49995 0.49994l-7e-5 1.5002h1.5003c0.27604 0 0.49991 0.22375 0.49991 0.49991 0 0.27615-0.22387 0.50002-0.49997 0.50001l-1.5002-1e-5v1.4999c0 0.27635-0.22373 0.50022-0.49988 0.50022s-0.50002-0.22387-0.50002-0.50012l-1e-5 -1.5h-1.4999c-0.27633 2e-5 -0.50019-0.22385-0.50019-0.5 0-0.27616 0.22386-0.50002 0.5001-0.49997z"/>
     <path d="m172.88 104.39c-0.0853 0.26263-0.36742 0.40633-0.63006 0.32103-0.2626-0.0853-0.4064-0.36742-0.3211-0.62993l-2.9261-0.95081-0.21421 0.13674c-0.4946 4.0909 0.83793 8.192 3.6428 11.211l0.25359-0.0152 1.8085-2.4891c-0.22344-0.16221-0.27296-0.47491-0.11064-0.69832s0.47501-0.27294 0.69842-0.11062 0.27294 0.47501 0.11074 0.69835l3.236 2.3512c0.16237-0.22336 0.47507-0.27289 0.69848-0.11057 0.22342 0.16232 0.27294 0.47501 0.11062 0.69842-0.16231 0.22342-0.47501 0.27294-0.69823 0.11059l-1.8085 2.4892 0.0639 0.24596c3.7376 1.7346 8.0498 1.7346 11.788 0l0.0636-0.24596-1.8081-2.4892c-0.22346 0.16233-0.53616 0.11281-0.69848-0.11061-0.16232-0.22341-0.11279-0.5361 0.11062-0.69842s0.53611-0.11279 0.69839 0.11051l3.2363-2.3512c-0.16239-0.22338-0.11287-0.53607 0.11054-0.69839 0.22342-0.16232 0.53611-0.11279 0.69843 0.11062s0.11279 0.53611-0.11081 0.69822l1.8085 2.4892 0.25358 0.0152c2.805-3.0187 4.1375-7.1198 3.6428-11.211l-0.2142-0.13674-2.926 0.95075c0.0854 0.26257-0.0584 0.54469-0.32099 0.62999-0.26264 0.0853-0.54476-0.0584-0.63006-0.32103-0.0853-0.26264 0.0584-0.54471 0.32109-0.63021l-1.2362-3.8041c-0.26266 0.08526-0.54478-0.05847-0.63008-0.3211-0.0853-0.26264 0.0584-0.54472 0.32103-0.63006 0.26264-0.08534 0.54476 0.05839 0.62996 0.32089l2.9261-0.95038 0.0931-0.23664c-2.0045-3.6005-5.4931-6.1351-9.5365-6.9287l-0.19632 0.1613-2e-5 3.0768c0.27613-3.2e-5 0.5 0.22384 0.5 0.49999s-0.22387 0.50002-0.50002 0.50002-0.49991-0.22386-0.49991-0.50002h-4.0002c-8e-5 0.27615-0.22395 0.50002-0.5001 0.50002s-0.50002-0.22386-0.50002-0.50002 0.22387-0.49996 0.49983-0.49996v-3.0768l-0.196-0.16129c-4.0436 0.79359-7.5322 3.3282-9.5365 6.9287l0.0927 0.23669 2.9261 0.95046c0.0854-0.26257 0.36744-0.4063 0.63008-0.32096 0.26263 0.08534 0.40633 0.36742 0.32103 0.63006-0.0853 0.26264-0.36742 0.40637-0.63025 0.32117l-1.236 3.8042c0.26274 0.0854 0.40644 0.36749 0.32114 0.63013z"/>
    </g>
   </g>
   <g transform="translate(3.2126 -.26591)">
    <path d="m96.635 133.79c0.27615 0 0.50002-0.22387 0.50002-0.50002s-0.22386-0.50002-0.50002-0.50002-0.50002 0.22387-0.50006 0.50008c-4.5e-5 0.27609 0.22391 0.49996 0.50006 0.49996z"/>
    <path d="m60.721 126.1c0.26264 0.0853 0.40637 0.36742 0.32103 0.63006-0.08534 0.2626-0.36742 0.4064-0.63002 0.321l-1.2361 3.8044c0.26264 0.0853 0.40636 0.36737 0.32102 0.63001-0.08534 0.26263-0.36742 0.40633-0.63006 0.32103-0.26264-0.0853-0.40637-0.36742-0.32088-0.6301l-4.0898-1.3288-0.25188 0.12827-0.5588 1.7192 0.98129 1.8301c27.479 7.679 56.537 7.679 84.016 0l0.98095-1.8301-0.55838-1.7192-0.25188-0.12827-4.0898 1.3289c0.0854 0.26266-0.0584 0.54478-0.32101 0.63008-0.26263 0.0853-0.54476-0.0584-0.63006-0.32103-0.0853-0.26264 0.0584-0.54475 0.32114-0.62995l-1.2362-3.8045c-0.26267 0.0853-0.5448-0.0584-0.6301-0.32101-0.0853-0.26264 0.0584-0.54476 0.32104-0.63006 0.26263-0.0853 0.5447 0.0584 0.63 0.32114l4.0898-1.3288 0.12827-0.25231-0.55372-1.7043-1.9097-1.0278c-25.065 6.9104-51.532 6.9104-76.597 0l-1.9097 1.0278-0.55372 1.7043 0.12827 0.25231 4.0897 1.3288c0.08525-0.26268 0.36733-0.40638 0.62997-0.32108z"/>
   </g>
   <g transform="translate(-85.919 17.685)">
    <path d="m186.77 131.04c0.27615 0 0.50002-0.22387 0.50002-0.50002s-0.22387-0.50002-0.50002-0.50002-0.50002 0.22387-0.49993 0.50007c9e-5 0.2761 0.22378 0.49997 0.49993 0.49997z"/>
    <path d="m184.77 131.04c0.27615 0 0.50002-0.22387 0.50002-0.50002s-0.22387-0.50002-0.50002-0.50002-0.50002 0.22387-0.50002 0.50007c0 0.2761 0.22387 0.49997 0.50002 0.49997z"/>
    <path d="m217.95 130.36c-0.26566 0.0754-0.54217-0.0788-0.61757-0.34444-0.0754-0.26565 0.0788-0.5422 0.34426-0.6175l-1.0923-3.8481c-0.26572 0.0754-0.54224-0.0788-0.61764-0.34446-0.0754-0.26565 0.0788-0.54218 0.34444-0.61758 0.26565-0.0754 0.54214 0.0788 0.61744 0.34441l4.1368-1.1743 0.13758-0.24722-0.48937-1.7238-1.8695-1.099c-21.756 5.1323-44.408 5.1323-66.165 0l-1.8694 1.099-0.4898 1.7238 0.13801 0.24722 4.1367 1.1744c0.0753-0.26563 0.35184-0.41983 0.61749-0.34443 0.26564 0.0754 0.41984 0.35193 0.34444 0.61758-0.0754 0.26567-0.35192 0.41987-0.61767 0.34447l-1.0925 3.8481c0.26574 0.0754 0.41994 0.35189 0.34454 0.61754-0.0754 0.26564-0.35191 0.41984-0.61757 0.34444-0.26569-0.0754-0.41989-0.35192-0.34429-0.61777l-4.1368-1.1743-0.24723 0.138-0.49361 1.7382 1.0494 1.7928c23.902 5.7256 48.819 5.7256 72.722 0l1.049-1.7928-0.49361-1.7382-0.2468-0.138-4.1368 1.1744c0.0755 0.26575-0.0787 0.54227-0.34439 0.61767z"/>
   </g>
  </g>
 </g>
</svg>
