<?xml version="1.0" encoding="UTF-8" standalone="no"?>
<!-- Created with Inkscape (http://www.inkscape.org/) -->

<svg
   width="110mm"
   height="60mm"
   version="1.1"
   viewBox="0 0 110 60"
   id="svg612"
   sodipodi:docname="dome_assembly.optimized.svg"
   inkscape:version="1.2.2 (b0a8486541, 2022-12-01)"
   xmlns:inkscape="http://www.inkscape.org/namespaces/inkscape"
   xmlns:sodipodi="http://sodipodi.sourceforge.net/DTD/sodipodi-0.dtd"
   xmlns="http://www.w3.org/2000/svg"
   xmlns:svg="http://www.w3.org/2000/svg">
  <sodipodi:namedview
     id="namedview614"
     pagecolor="#ffffff"
     bordercolor="#666666"
     borderopacity="1.0"
     inkscape:showpageshadow="2"
     inkscape:pageopacity="0.0"
     inkscape:pagecheckerboard="0"
     inkscape:deskcolor="#d1d1d1"
     inkscape:document-units="mm"
     showgrid="false"
     inkscape:zoom="2.3079939"
     inkscape:cx="165.72834"
     inkscape:cy="151.64685"
     inkscape:window-width="1920"
     inkscape:window-height="1011"
     inkscape:window-x="0"
     inkscape:window-y="32"
     inkscape:window-maximized="1"
     inkscape:current-layer="g610" />
  <defs
     id="defs544">
    <clipPath
       id="clipPath5365">
      <path
         d="m33.177 212.78h297.01v-210.02h-297.01z"
         stroke-width=".042333"
         id="path505" />
    </clipPath>
    <clipPath
       id="clipPath5455">
      <path
         d="m33.177 212.78h297.01v-210.02h-297.01z"
         stroke-width=".042333"
         id="path508" />
    </clipPath>
    <clipPath
       id="clipPath5461">
      <path
         d="m33.177 212.78h297.01v-210.02h-297.01z"
         stroke-width=".042333"
         id="path511" />
    </clipPath>
    <clipPath
       id="clipPath5521">
      <path
         d="m33.177 212.78h297.01v-210.02h-297.01z"
         stroke-width=".042333"
         id="path514" />
    </clipPath>
    <clipPath
       id="clipPath5611">
      <path
         d="m33.177 212.78h297.01v-210.02h-297.01z"
         stroke-width=".042333"
         id="path517" />
    </clipPath>
    <clipPath
       id="clipPath5749">
      <path
         d="m33.177 212.78h297.01v-210.02h-297.01z"
         stroke-width=".042333"
         id="path520" />
    </clipPath>
    <clipPath
       id="clipPath5911">
      <path
         d="m33.177 212.78h297.01v-210.02h-297.01z"
         stroke-width=".042333"
         id="path523" />
    </clipPath>
    <clipPath
       id="clipPath6013">
      <path
         d="m33.177 212.78h297.01v-210.02h-297.01z"
         stroke-width=".042333"
         id="path526" />
    </clipPath>
    <clipPath
       id="clipPath6169">
      <path
         d="m33.177 212.78h297.01v-210.02h-297.01z"
         stroke-width=".042333"
         id="path529" />
    </clipPath>
    <mask
       id="mask6157"
       maskUnits="userSpaceOnUse">
      <path
         transform="translate(-10.035 13.735)"
         d="m123.08 74.078c0.26562 0.07525 0.54212-0.07896 0.61754-0.34462 0.0754-0.26565-0.0788-0.54215-0.34444-0.61757-0.26565-0.07542-0.54215 0.07879-0.61763 0.34449l-3.1746-0.90123-0.13759-0.24723 0.21421-0.75523 1.8606-1.0621c12.465 3.2709 25.564 3.2709 38.029 0l1.8606 1.0621 0.21421 0.75523-0.13759 0.24723-3.1746 0.90128c-0.0755-0.26575-0.352-0.41996-0.61765-0.34454-0.26566 0.07542-0.41987 0.35192-0.34445 0.61757 0.0754 0.26566 0.35193 0.41987 0.61754 0.34453l0.54649 1.9241c-0.26585 0.07523-0.42006 0.35173-0.34463 0.61738 0.0754 0.26565 0.35191 0.41987 0.61757 0.34444 0.26565-0.07542 0.41986-0.35192 0.34436-0.61761l3.1749-0.90132 0.2468 0.13801 0.22225 0.78232-1.0405 1.8267c-13.894 3.6746-28.505 3.6746-42.4-4e-6l-1.0406-1.8267 0.22225-0.78232 0.24723-0.13801 3.1746 0.90128c-0.0755 0.26574 0.0787 0.54223 0.34433 0.61765 0.26565 0.07543 0.54215-0.07879 0.61757-0.34444 0.0754-0.26566-0.0788-0.54215-0.34434-0.61748z"
         clip-path="url(#clipPath5365)"
         fill="#fff"
         id="path532" />
    </mask>
    <mask
       id="mask6162"
       maskUnits="userSpaceOnUse">
      <path
         transform="translate(-10.035 13.735)"
         d="m123.08 74.078c0.26562 0.07525 0.54212-0.07896 0.61754-0.34462 0.0754-0.26565-0.0788-0.54215-0.34444-0.61757-0.26565-0.07542-0.54215 0.07879-0.61763 0.34449l-3.1746-0.90123-0.13759-0.24723 0.21421-0.75523 1.8606-1.0621c12.465 3.2709 25.564 3.2709 38.029 0l1.8606 1.0621 0.21421 0.75523-0.13759 0.24723-3.1746 0.90128c-0.0755-0.26575-0.352-0.41996-0.61765-0.34454-0.26566 0.07542-0.41987 0.35192-0.34445 0.61757 0.0754 0.26566 0.35193 0.41987 0.61754 0.34453l0.54649 1.9241c-0.26585 0.07523-0.42006 0.35173-0.34463 0.61738 0.0754 0.26565 0.35191 0.41987 0.61757 0.34444 0.26565-0.07542 0.41986-0.35192 0.34436-0.61761l3.1749-0.90132 0.2468 0.13801 0.22225 0.78232-1.0405 1.8267c-13.894 3.6746-28.505 3.6746-42.4-4e-6l-1.0406-1.8267 0.22225-0.78232 0.24723-0.13801 3.1746 0.90128c-0.0755 0.26574 0.0787 0.54223 0.34433 0.61765 0.26565 0.07543 0.54215-0.07879 0.61757-0.34444 0.0754-0.26566-0.0788-0.54215-0.34434-0.61748z"
         clip-path="url(#clipPath5365)"
         fill="#fff"
         id="path535" />
    </mask>
    <mask
       id="mask6166"
       maskUnits="userSpaceOnUse">
      <path
         transform="translate(-10.035 13.735)"
         d="m123.08 74.078c0.26562 0.07525 0.54212-0.07896 0.61754-0.34462 0.0754-0.26565-0.0788-0.54215-0.34444-0.61757-0.26565-0.07542-0.54215 0.07879-0.61763 0.34449l-3.1746-0.90123-0.13759-0.24723 0.21421-0.75523 1.8606-1.0621c12.465 3.2709 25.564 3.2709 38.029 0l1.8606 1.0621 0.21421 0.75523-0.13759 0.24723-3.1746 0.90128c-0.0755-0.26575-0.352-0.41996-0.61765-0.34454-0.26566 0.07542-0.41987 0.35192-0.34445 0.61757 0.0754 0.26566 0.35193 0.41987 0.61754 0.34453l0.54649 1.9241c-0.26585 0.07523-0.42006 0.35173-0.34463 0.61738 0.0754 0.26565 0.35191 0.41987 0.61757 0.34444 0.26565-0.07542 0.41986-0.35192 0.34436-0.61761l3.1749-0.90132 0.2468 0.13801 0.22225 0.78232-1.0405 1.8267c-13.894 3.6746-28.505 3.6746-42.4-4e-6l-1.0406-1.8267 0.22225-0.78232 0.24723-0.13801 3.1746 0.90128c-0.0755 0.26574 0.0787 0.54223 0.34433 0.61765 0.26565 0.07543 0.54215-0.07879 0.61757-0.34444 0.0754-0.26566-0.0788-0.54215-0.34434-0.61748z"
         clip-path="url(#clipPath5365)"
         fill="#fff"
         id="path538" />
    </mask>
  </defs>
  <g
     transform="translate(-54.892 -26.21)"
     id="g610">
    <g
       stroke-width=".25"
       id="g588"
       transform="translate(4.6679,5.1210999)">
      <g
         transform="translate(-7.3188 -9.2502)"
         id="g560">
        <path
           d="m123.08 74.078c0.26562 0.07525 0.54212-0.07896 0.61754-0.34462 0.0754-0.26565-0.0788-0.54215-0.34444-0.61757-0.26565-0.07542-0.54215 0.07879-0.61763 0.34449l-3.1746-0.90123-0.13759-0.24723 0.21421-0.75523 1.8606-1.0621c12.465 3.2709 25.564 3.2709 38.029 0l1.8606 1.0621 0.21421 0.75523-0.13759 0.24723-3.1746 0.90128c-0.0755-0.26575-0.352-0.41996-0.61765-0.34454-0.26566 0.07542-0.41987 0.35192-0.34445 0.61757 0.0754 0.26566 0.35193 0.41987 0.61754 0.34453l0.54649 1.9241c-0.26585 0.07523-0.42006 0.35173-0.34463 0.61738 0.0754 0.26565 0.35191 0.41987 0.61757 0.34444 0.26565-0.07542 0.41986-0.35192 0.34436-0.61761l3.1749-0.90132 0.2468 0.13801 0.22225 0.78232-1.0405 1.8267c-13.894 3.6746-28.505 3.6746-42.4-4e-6l-1.0406-1.8267 0.22225-0.78232 0.24723-0.13801 3.1746 0.90128c-0.0755 0.26574 0.0787 0.54223 0.34433 0.61765 0.26565 0.07543 0.54215-0.07879 0.61757-0.34444 0.0754-0.26566-0.0788-0.54215-0.34434-0.61748z"
           clip-path="url(#clipPath5365)"
           id="path556"
           style="fill:#ffffff;stroke:#000000"
           transform="translate(-9.5833332e-7)" />
        <path
           d="m141.51 77.448c0.27615 0 0.50002-0.22387 0.50002-0.50002 0-0.27615-0.22387-0.50002-0.50002-0.50002s-0.50002 0.22387-0.49996 0.50002c7e-5 0.27614 0.22381 0.50001 0.49996 0.50001z"
           clip-path="url(#clipPath5461)"
           id="path552"
           transform="translate(-9.5833332e-7)"
           style="stroke:#000000;fill:none" />
        <path
           d="m139.51 77.448c0.27616 0 0.50002-0.22387 0.50002-0.50002 0-0.27615-0.22386-0.50002-0.50002-0.50002-0.27614 0-0.50001 0.22387-0.50003 0.50002-3e-5 0.27614 0.22389 0.50001 0.50003 0.50001z"
           clip-path="url(#clipPath5455)"
           id="path554"
           transform="translate(-9.5833332e-7)"
           style="fill:none;stroke:#000000" />
      </g>
      <g
         transform="translate(-4.9736 -10.623)"
         stroke="#000"
         stroke-linecap="round"
         stroke-linejoin="round"
         stroke-miterlimit="10"
         id="g566">
        <path
           d="m95.674 48.354c-0.2349 0.1452-0.54303 0.07247-0.68823-0.16243-0.14519-0.2349-0.07247-0.54303 0.16248-0.68814l-1.0516-1.7014c-0.23494 0.14518-0.54306 0.07246-0.68825-0.16244-0.14519-0.2349-0.07247-0.54303 0.16244-0.68822 0.2349-0.1452 0.54303-0.07247 0.68841 0.16234l3.7639-2.3262c-2.477-3.233-6.162-5.3197-10.209-5.781l-0.19864 0.17734 5e-6 4.2265c0.27616-1.02e-4 0.50002 0.22376 0.50002 0.49992 0 0.27615-0.22386 0.50002-0.50002 0.50002s-0.49996-0.22387-0.49996-0.49988l-2.0002-7e-5c6.1e-5 0.27608-0.2238 0.49995-0.49996 0.49995s-0.50002-0.22387-0.50002-0.50002c0-0.27615 0.22387-0.49982 0.49996-0.49982v-4.2266l-0.19854-0.17738c-3.9777 0.45344-7.609 2.4779-10.086 5.6231l0.04616 0.2621 3.5953 2.2221c0.14511-0.23485 0.45324-0.30758 0.68814-0.16238 0.23491 0.14519 0.30763 0.45332 0.16244 0.68822-0.1452 0.2349-0.45332 0.30763-0.68836 0.16245l-1.0515 1.7013c0.23496 0.14515 0.30769 0.45328 0.16249 0.68818-0.14519 0.2349-0.45332 0.30763-0.68822 0.16243-0.23491-0.14519-0.30763-0.45332-0.16225-0.68802l-3.5954-2.2221-0.25527 0.07578c-1.906 4.0473-1.906 8.7344 4.2e-5 12.782l0.25523 0.07588 3.5953-2.2222c-0.14529-0.23498-0.07256-0.54311 0.16234-0.68831 0.2349-0.14519 0.54303-0.07247 0.68822 0.16244 0.1452 0.2349 0.07247 0.54303-0.16255 0.68809l1.0516 1.7014c0.23503-0.14512 0.54316-0.0724 0.68836 0.1625 0.14519 0.2349 0.07247 0.54303-0.16244 0.68822-0.2349 0.14519-0.54303 0.07247-0.68814-0.16241l-3.5953 2.2221-0.04614 0.26204c2.4769 3.1453 6.1082 5.1697 10.086 5.6231l0.1986-0.17737 3.2e-5 -4.2262c-0.27612-8.5e-5 -0.49999-0.22395-0.49999-0.5001s0.22387-0.50002 0.50002-0.50002 0.49989 0.22387 0.49989 0.49983l2.0002 9.8e-5c-2.7e-5 -0.27606 0.22384-0.49992 0.49999-0.49992s0.50002 0.22387 0.50002 0.50002-0.22386 0.50018-0.50002 0.50018v4.2261l0.19854 0.17738c3.9778-0.45339 7.6091-2.4779 10.086-5.623l-0.0462-0.26213-3.595-2.2221c-0.14529 0.23488-0.45342 0.3076-0.68832 0.16241-0.23491-0.14519-0.30763-0.45332-0.16244-0.68822 0.14519-0.2349 0.45332-0.30763 0.68828-0.1625l1.0515-1.7013c-0.23493-0.14512-0.30765-0.45325-0.16246-0.68816 0.1452-0.23491 0.45332-0.30763 0.68823-0.16244 0.2349 0.1452 0.30763 0.45332 0.1626 0.68839l3.5949 2.2221 0.25527-0.07578c1.9061-4.0477 1.9061-8.7348-1.3e-5 -12.782l-0.25526-0.07569-3.595 2.222c0.14511 0.2348 0.07238 0.54293-0.16252 0.68812z"
           clip-path="url(#clipPath6169)"
           fill="#ccff42"
           id="path562"
           style="fill:#ffffff" />
        <path
           d="m85.615 49.91c0-0.27616 0.22405-0.50002 0.5002-0.50002s0.50002 0.22386 0.50008 0.50002l5.7e-5 4.0001c0 0.27621-0.22398 0.50008-0.50013 0.50008s-0.50002-0.22387-0.50011-0.50005z"
           clip-path="url(#clipPath6013)"
           fill="none"
           id="path564" />
      </g>
      <g
         transform="translate(-8.2424 -12.239)"
         stroke="#000"
         stroke-linecap="round"
         stroke-linejoin="round"
         stroke-miterlimit="10"
         id="g572">
        <path
           d="m148.23 60.282c0.22342-0.16232 0.53611-0.11279 0.69843 0.11062 0.16232 0.22341 0.11279 0.53611-0.11068 0.6985l2.4841 3.4193 0.26501 0.02667c3.8819-3.5575 5.6144-8.8896 4.5649-14.049l-0.22993-0.13415-4.0196 1.3059c0.0853 0.2626-0.0584 0.54469-0.32102 0.63003-0.26264 0.08534-0.54476-0.05839-0.63006-0.32103-0.0853-0.26264 0.0584-0.54472 0.32116-0.63027l-0.61813-1.902c-0.26269 0.08537-0.54482-0.05836-0.63012-0.321-0.0853-0.26264 0.0584-0.54472 0.32104-0.63006 0.26263-0.08533 0.54473 0.0584 0.63003 0.3211l4.0196-1.306 0.10711-0.24384c-2.1836-4.7911-6.7194-8.0866-11.951-8.6829l-0.19893 0.17731 9e-5 4.2265c0.27624-7.2e-5 0.5001 0.2238 0.5001 0.49995s-0.22386 0.50002-0.50001 0.50002-0.50014-0.22386-0.50014-0.49994l-1.9999-4e-5c-7e-5 0.27611-0.22394 0.49998-0.50009 0.49998s-0.50002-0.22386-0.50002-0.50002 0.22387-0.49988 0.50021-0.49988v-4.2266l-0.19897-0.17738c-5.2313 0.59641-9.7671 3.8918-11.951 8.683l0.10716 0.24386 4.0195 1.3059c0.0853-0.26267 0.36741-0.4064 0.63004-0.32107 0.26263 0.08534 0.40633 0.36742 0.32103 0.63006-0.0853 0.26263-0.36741 0.40636-0.63016 0.32096l-0.61801 1.9021c0.26269 0.08544 0.40639 0.36753 0.32109 0.63016-0.0853 0.26264-0.36742 0.40637-0.63006 0.32103-0.26261-0.08534-0.40641-0.36742-0.32101-0.62999l-4.0196-1.306-0.22987 0.1342c-1.0496 5.1595 0.68288 10.492 4.5647 14.049l0.26507-0.02658 2.4841-3.4193c-0.22344-0.16236-0.27297-0.47506-0.11065-0.69847 0.16232-0.22341 0.47501-0.27294 0.69843-0.11062 0.22341 0.16232 0.27293 0.47501 0.11076 0.69864l1.618 1.1755c0.16231-0.22351 0.475-0.27304 0.69841-0.11072 0.22342 0.16232 0.27294 0.47501 0.11062 0.69843-0.16232 0.22341-0.47501 0.27294-0.69852 0.11046l-2.4841 3.4193 0.0567 0.26035c4.5826 2.5925 10.189 2.5925 14.772-6e-6l0.0567-0.26034-2.4842-3.4192c-0.22347 0.1624-0.53617 0.11287-0.69848-0.11054-0.16232-0.22341-0.1128-0.53611 0.11062-0.69843 0.22341-0.16232 0.5361-0.11279 0.6984 0.11081l1.618-1.1757c-0.16225-0.22352-0.11273-0.53621 0.11068-0.69853z"
           clip-path="url(#clipPath5749)"
           fill="#ff4141"
           id="path568"
           style="fill:#ffffff" />
        <path
           d="m140.93 52.978v-1.5003c0-0.2761 0.2238-0.49996 0.49996-0.49996 0.27615 0 0.50001 0.22387 0.49998 0.49999l-2e-5 1.5003h1.5003c0.27597 0 0.49983 0.22368 0.49983 0.49983 0 0.27615-0.22386 0.50002-0.49992 0.50005l-1.5002 3.2e-5v1.4999c0 0.27627-0.22381 0.50014-0.49996 0.50014-0.27616 0-0.50002-0.22387-0.49999-0.50008l3e-5 -1.4999h-1.5003c-0.27598 0-0.49985-0.22393-0.49985-0.50008 0-0.27615 0.22387-0.50002 0.49993-0.49992z"
           clip-path="url(#clipPath5911)"
           fill="none"
           id="path570" />
      </g>
      <g
         transform="translate(-3.5871 -10.62)"
         fill="#fff"
         id="g586">
        <path
           d="m63.648 74.89c0.26277 0.08545 0.54485-0.05828 0.63019-0.32092 0.08534-0.26264-0.05839-0.54472-0.32103-0.63006-0.26264-0.08534-0.54472 0.0584-0.63005 0.32104l-3.1386-1.0198-0.12827-0.25188 0.24342-0.74972 1.9219-1.0757c14.791 3.559 30.216 3.559 45.007 0l1.922 1.0757 0.24342 0.74972-0.12827 0.25188-3.1386 1.0198c-0.0854-0.26266-0.36753-0.40639-0.63017-0.32106-0.26263 0.08534-0.40636 0.36742-0.32103 0.63006 0.0853 0.26264 0.36742 0.40637 0.62997 0.32097l0.61798 1.9024c-0.26247 0.08517-0.4062 0.36726-0.32087 0.6299 0.0853 0.26264 0.36743 0.40637 0.63006 0.32103 0.26264-0.08534 0.40637-0.36742 0.32109-0.63005l3.1387-1.0198 0.25188 0.12827 0.40513 1.2467-0.99269 1.7869c-16.506 4.0825-33.758 4.0825-50.265 8e-6l-0.99272-1.7869 0.40513-1.2467 0.25188-0.12827 3.1386 1.0198c-0.08534 0.26261 0.0584 0.5447 0.32103 0.63004 0.26264 0.08534 0.54472-0.05839 0.63006-0.32103 0.08534-0.26264-0.05839-0.54472-0.3211-0.62998z"
           clip-path="url(#clipPath5521)"
           fill="none"
           stroke="#000"
           stroke-linecap="round"
           stroke-linejoin="round"
           stroke-miterlimit="10"
           id="path584"
           style="fill:#ffffff" />
        <path
           d="m84.729 78.575c0.27615 0 0.50002-0.22387 0.50002-0.50002 0-0.27615-0.22386-0.50002-0.50002-0.50002s-0.50002 0.22387-0.50006 0.50002c-4.5e-5 0.27615 0.22391 0.50001 0.50006 0.50001z"
           clip-path="url(#clipPath5611)"
           fill="none"
           stroke="#000"
           stroke-linecap="round"
           stroke-linejoin="round"
           stroke-miterlimit="10"
           id="path582" />
      </g>
    </g>
  </g>
</svg>
